<?xml version="1.0" standalone="no"?>
<!DOCTYPE svg PUBLIC "-//W3C//DTD SVG 20010904//EN"
 "http://www.w3.org/TR/2001/REC-SVG-20010904/DTD/svg10.dtd">
<svg version="1.0" xmlns="http://www.w3.org/2000/svg"
 width="16.000000pt" height="16.000000pt" viewBox="0 0 16.000000 16.000000"
 preserveAspectRatio="xMidYMid meet">
<metadata>
Created by potrace 1.11, written by Peter Selinger 2001-2013
</metadata>
<g transform="translate(0.000000,16.000000) scale(0.006154,-0.006154)"
fill="#000000" stroke="none">
<path d="M998 1766 c-134 -48 -287 -201 -416 -417 -168 -281 -182 -455 -42
-527 37 -19 56 -23 106 -19 103 8 187 54 382 212 l44 35 138 0 c76 0 150 -4
163 -9 14 -5 45 -41 71 -79 59 -89 124 -149 171 -158 72 -13 169 1 227 33 81
46 124 116 178 293 43 142 44 148 45 285 0 175 -17 239 -78 301 -82 82 -228
83 -372 4 -127 -69 -229 -72 -307 -9 -22 17 -62 40 -89 50 -58 22 -166 25
-221 5z m131 -179 c8 -11 7 -26 -4 -63 -22 -74 -23 -74 49 -74 76 0 91 -12 75
-59 -15 -42 -35 -51 -117 -51 l-69 0 -16 -58 c-19 -70 -34 -84 -87 -86 -59 -1
-67 13 -47 77 9 30 17 57 17 60 0 4 -29 7 -64 7 -71 0 -91 13 -81 53 12 48 40
62 116 60 l68 -2 16 52 c9 29 28 62 41 75 28 25 85 30 103 9z m709 -43 c72
-50 -40 -170 -123 -132 -54 24 -39 95 27 130 40 22 67 23 96 2z m-224 -166
c46 -21 42 -76 -9 -116 -52 -41 -123 -34 -142 14 -10 26 23 79 59 97 39 20 59
21 92 5z"/>
</g>
</svg>
